# xmcd
#
# Track frame offsets:
#	151
#	9420
#	19409
#	31711
#	44158
#	59012
#	68396
#	79898
#	91845
#	104139
#	116397
#	128674
#	140935
#	152497
#	161771
#	174556
#	185213
#	197233
#	210567
#	221636
#
# Disc length: 3078 seconds
#
# Revision: 0
# Processed by: cddbd v1.4PL0 Copyright (c) Steve Scherf et al.
# Submitted via: audiograbber 1.80
#
DISCID=250c0414
DTITLE=Gladys Knight and The Pips - Come See About Me
DYEAR=1900
DGENRE=
TTITLE0=Every Beat Of My Heart
TTITLE1=Operator
TTITLE2=Come See About Me
TTITLE3=You Broke Your Promise
TTITLE4=Guess Who
TTITLE5=Running Around
TTITLE6=Goodnight My Love
TTITLE7=What Shall I Do
TTITLE8=Love Me Again
TTITLE9=I Really Didn't Mean It
TTITLE10=I Can't Stand By
TTITLE11=Trust In You
TTITLE12=Jungle Love
TTITLE13=Room In Your Heart
TTITLE14=Letter Full Of Tears
TTITLE15=One More Lonely Night
TTITLE16=Stay Away
TTITLE17=Get A Hold Of Yourself
TTITLE18=I Want That Kind Of Love
TTITLE19=If I Should Ever Fall In Love
EXTD=
EXTT0=
EXTT1=
EXTT2=
EXTT3=
EXTT4=
EXTT5=
EXTT6=
EXTT7=
EXTT8=
EXTT9=
EXTT10=
EXTT11=
EXTT12=
EXTT13=
EXTT14=
EXTT15=
EXTT16=
EXTT17=
EXTT18=
EXTT19=
PLAYORDER=
